<svg width="118" height="16" viewBox="0 0 118 16" fill="none" xmlns="http://www.w3.org/2000/svg">
<path d="M4.16063 6.92969C2.87417 6.5599 1.93667 6.10677 1.34813 5.57031C0.764792 5.02865 0.473125 4.36198 0.473125 3.57031C0.473125 2.67448 0.829896 1.9349 1.54344 1.35156C2.26219 0.763021 3.19448 0.46875 4.34031 0.46875C5.12156 0.46875 5.81688 0.619792 6.42625 0.921875C7.04083 1.22396 7.51479 1.64062 7.84813 2.17188C8.18667 2.70312 8.35594 3.28385 8.35594 3.91406H6.84813C6.84813 3.22656 6.62938 2.6875 6.19188 2.29688C5.75438 1.90104 5.13719 1.70312 4.34031 1.70312C3.60073 1.70312 3.0226 1.86719 2.60594 2.19531C2.19448 2.51823 1.98875 2.96875 1.98875 3.54688C1.98875 4.01042 2.18406 4.40365 2.57469 4.72656C2.97052 5.04427 3.63979 5.33594 4.5825 5.60156C5.53042 5.86719 6.27 6.16146 6.80125 6.48438C7.33771 6.80208 7.73354 7.17448 7.98875 7.60156C8.24917 8.02865 8.37938 8.53125 8.37938 9.10938C8.37938 10.0312 8.02 10.7708 7.30125 11.3281C6.5825 11.8802 5.62156 12.1562 4.41844 12.1562C3.63719 12.1562 2.90802 12.0078 2.23094 11.7109C1.55385 11.4089 1.03042 10.9974 0.660625 10.4766C0.296042 9.95573 0.11375 9.36458 0.11375 8.70312H1.62156C1.62156 9.39062 1.87417 9.9349 2.37938 10.3359C2.88979 10.7318 3.56948 10.9297 4.41844 10.9297C5.2101 10.9297 5.81688 10.7682 6.23875 10.4453C6.66063 10.1224 6.87156 9.68229 6.87156 9.125C6.87156 8.56771 6.67625 8.13802 6.28563 7.83594C5.895 7.52865 5.18667 7.22656 4.16063 6.92969ZM14.2303 12.1562C13.0845 12.1562 12.1522 11.7812 11.4334 11.0312C10.7147 10.276 10.3553 9.26823 10.3553 8.00781V7.74219C10.3553 6.90365 10.5142 6.15625 10.8319 5.5C11.1548 4.83854 11.6027 4.32292 12.1756 3.95312C12.7538 3.57812 13.3788 3.39062 14.0506 3.39062C15.1496 3.39062 16.0038 3.7526 16.6131 4.47656C17.2225 5.20052 17.5272 6.23698 17.5272 7.58594V8.1875H11.8006C11.8215 9.02083 12.0636 9.69531 12.5272 10.2109C12.9959 10.7214 13.5897 10.9766 14.3084 10.9766C14.8189 10.9766 15.2511 10.8724 15.6053 10.6641C15.9595 10.4557 16.2694 10.1797 16.535 9.83594L17.4178 10.5234C16.7095 11.612 15.647 12.1562 14.2303 12.1562ZM14.0506 4.57812C13.4673 4.57812 12.9777 4.79167 12.5819 5.21875C12.186 5.64062 11.9413 6.23438 11.8475 7H16.0819V6.89062C16.0402 6.15625 15.8423 5.58854 15.4881 5.1875C15.134 4.78125 14.6548 4.57812 14.0506 4.57812ZM23.3547 12.1562C22.2089 12.1562 21.2766 11.7812 20.5578 11.0312C19.8391 10.276 19.4797 9.26823 19.4797 8.00781V7.74219C19.4797 6.90365 19.6385 6.15625 19.9563 5.5C20.2792 4.83854 20.7271 4.32292 21.3 3.95312C21.8781 3.57812 22.5031 3.39062 23.175 3.39062C24.274 3.39062 25.1281 3.7526 25.7375 4.47656C26.3469 5.20052 26.6516 6.23698 26.6516 7.58594V8.1875H20.925C20.9458 9.02083 21.188 9.69531 21.6516 10.2109C22.1203 10.7214 22.7141 10.9766 23.4328 10.9766C23.9432 10.9766 24.3755 10.8724 24.7297 10.6641C25.0839 10.4557 25.3938 10.1797 25.6594 9.83594L26.5422 10.5234C25.8339 11.612 24.7714 12.1562 23.3547 12.1562ZM23.175 4.57812C22.5917 4.57812 22.1021 4.79167 21.7063 5.21875C21.3104 5.64062 21.0656 6.23438 20.9719 7H25.2063V6.89062C25.1646 6.15625 24.9667 5.58854 24.6125 5.1875C24.2583 4.78125 23.7792 4.57812 23.175 4.57812ZM42.5566 6.67969C42.5566 7.79427 42.3691 8.76823 41.9941 9.60156C41.6191 10.4297 41.0878 11.0625 40.4003 11.5C39.7128 11.9375 38.9107 12.1562 37.9941 12.1562C37.0982 12.1562 36.304 11.9375 35.6113 11.5C34.9185 11.0573 34.3795 10.4297 33.9941 9.61719C33.6139 8.79948 33.4185 7.85417 33.4081 6.78125V5.96094C33.4081 4.86719 33.5982 3.90104 33.9784 3.0625C34.3586 2.22396 34.8951 1.58333 35.5878 1.14062C36.2857 0.692708 37.0826 0.46875 37.9784 0.46875C38.8899 0.46875 39.692 0.690104 40.3847 1.13281C41.0826 1.57031 41.6191 2.20833 41.9941 3.04688C42.3691 3.88021 42.5566 4.85156 42.5566 5.96094V6.67969ZM41.0644 5.94531C41.0644 4.59635 40.7935 3.5625 40.2519 2.84375C39.7102 2.11979 38.9524 1.75781 37.9784 1.75781C37.0305 1.75781 36.2831 2.11979 35.7363 2.84375C35.1946 3.5625 34.9159 4.5625 34.9003 5.84375V6.67969C34.9003 7.98698 35.1738 9.01562 35.7206 9.76562C36.2727 10.5104 37.0305 10.8828 37.9941 10.8828C38.9628 10.8828 39.7128 10.5312 40.2441 9.82812C40.7753 9.11979 41.0488 8.10677 41.0644 6.78906V5.94531ZM50.4388 11.1641C49.8763 11.8255 49.0507 12.1562 47.9622 12.1562C47.0611 12.1562 46.3736 11.8958 45.8997 11.375C45.4309 10.849 45.194 10.0729 45.1888 9.04688V3.54688H46.6341V9.00781C46.6341 10.2891 47.1549 10.9297 48.1966 10.9297C49.3007 10.9297 50.0351 10.5182 50.3997 9.69531V3.54688H51.845V12H50.47L50.4388 11.1641ZM58.7741 4.84375C58.5553 4.80729 58.3183 4.78906 58.0631 4.78906C57.1152 4.78906 56.472 5.19271 56.1334 6V12H54.6881V3.54688H56.0944L56.1178 4.52344C56.5918 3.76823 57.2636 3.39062 58.1334 3.39062C58.4147 3.39062 58.6282 3.42708 58.7741 3.5V4.84375ZM67.0853 7.54688V12H65.5853V0.625H69.7806C71.0254 0.625 71.9994 0.942708 72.7025 1.57812C73.4108 2.21354 73.765 3.05469 73.765 4.10156C73.765 5.20573 73.4186 6.05729 72.7259 6.65625C72.0384 7.25 71.0515 7.54688 69.765 7.54688H67.0853ZM67.0853 6.32031H69.7806C70.5827 6.32031 71.1973 6.13281 71.6244 5.75781C72.0515 5.3776 72.265 4.83073 72.265 4.11719C72.265 3.4401 72.0515 2.89844 71.6244 2.49219C71.1973 2.08594 70.6114 1.875 69.8666 1.85938H67.0853V6.32031ZM80.1784 4.84375C79.9597 4.80729 79.7227 4.78906 79.4675 4.78906C78.5196 4.78906 77.8764 5.19271 77.5378 6V12H76.0925V3.54688H77.4987L77.5222 4.52344C77.9961 3.76823 78.668 3.39062 79.5378 3.39062C79.8191 3.39062 80.0326 3.42708 80.1784 3.5V4.84375ZM81.6153 7.69531C81.6153 6.86719 81.7768 6.1224 82.0997 5.46094C82.4278 4.79948 82.8809 4.28906 83.4591 3.92969C84.0424 3.57031 84.7065 3.39062 85.4512 3.39062C86.6023 3.39062 87.532 3.78906 88.2403 4.58594C88.9539 5.38281 89.3106 6.44271 89.3106 7.76562V7.86719C89.3106 8.6901 89.1518 9.42969 88.8341 10.0859C88.5216 10.737 88.071 11.2448 87.4825 11.6094C86.8992 11.974 86.2273 12.1562 85.4669 12.1562C84.321 12.1562 83.3914 11.7578 82.6778 10.9609C81.9695 10.1641 81.6153 9.10938 81.6153 7.79688V7.69531ZM83.0684 7.86719C83.0684 8.80469 83.2846 9.55729 83.7169 10.125C84.1544 10.6927 84.7377 10.9766 85.4669 10.9766C86.2012 10.9766 86.7846 10.6901 87.2169 10.1172C87.6492 9.53906 87.8653 8.73177 87.8653 7.69531C87.8653 6.76823 87.644 6.01823 87.2012 5.44531C86.7637 4.86719 86.1804 4.57812 85.4512 4.57812C84.7377 4.57812 84.1622 4.86198 83.7247 5.42969C83.2872 5.9974 83.0684 6.8099 83.0684 7.86719ZM93.2553 3.54688V12.9766C93.2553 14.6016 92.5183 15.4141 91.0444 15.4141C90.7267 15.4141 90.4324 15.3672 90.1616 15.2734V14.1172C90.3282 14.1589 90.547 14.1797 90.8178 14.1797C91.1407 14.1797 91.3855 14.0911 91.5522 13.9141C91.7241 13.7422 91.81 13.4401 91.81 13.0078V3.54688H93.2553ZM91.6616 1.30469C91.6616 1.07552 91.7319 0.880208 91.8725 0.71875C92.0183 0.552083 92.2293 0.46875 92.5053 0.46875C92.7866 0.46875 93.0001 0.549479 93.1459 0.710938C93.2918 0.872396 93.3647 1.07031 93.3647 1.30469C93.3647 1.53906 93.2918 1.73438 93.1459 1.89062C93.0001 2.04688 92.7866 2.125 92.5053 2.125C92.2241 2.125 92.0131 2.04688 91.8725 1.89062C91.7319 1.73438 91.6616 1.53906 91.6616 1.30469ZM99.7391 12.1562C98.5932 12.1562 97.6609 11.7812 96.9422 11.0312C96.2234 10.276 95.8641 9.26823 95.8641 8.00781V7.74219C95.8641 6.90365 96.0229 6.15625 96.3406 5.5C96.6635 4.83854 97.1115 4.32292 97.6844 3.95312C98.2625 3.57812 98.8875 3.39062 99.5594 3.39062C100.658 3.39062 101.512 3.7526 102.122 4.47656C102.731 5.20052 103.036 6.23698 103.036 7.58594V8.1875H97.3094C97.3302 9.02083 97.5724 9.69531 98.0359 10.2109C98.5047 10.7214 99.0984 10.9766 99.8172 10.9766C100.328 10.9766 100.76 10.8724 101.114 10.6641C101.468 10.4557 101.778 10.1797 102.044 9.83594L102.927 10.5234C102.218 11.612 101.156 12.1562 99.7391 12.1562ZM99.5594 4.57812C98.976 4.57812 98.4865 4.79167 98.0906 5.21875C97.6948 5.64062 97.45 6.23438 97.3562 7H101.591V6.89062C101.549 6.15625 101.351 5.58854 100.997 5.1875C100.643 4.78125 100.164 4.57812 99.5594 4.57812ZM108.746 10.9766C109.262 10.9766 109.712 10.8203 110.098 10.5078C110.483 10.1953 110.697 9.80469 110.738 9.33594H112.106C112.08 9.82031 111.913 10.2812 111.606 10.7188C111.298 11.1562 110.887 11.5052 110.371 11.7656C109.861 12.026 109.319 12.1562 108.746 12.1562C107.595 12.1562 106.679 11.7734 105.996 11.0078C105.319 10.237 104.981 9.1849 104.981 7.85156V7.60938C104.981 6.78646 105.132 6.05469 105.434 5.41406C105.736 4.77344 106.168 4.27604 106.731 3.92188C107.298 3.56771 107.968 3.39062 108.738 3.39062C109.686 3.39062 110.473 3.67448 111.098 4.24219C111.728 4.8099 112.064 5.54688 112.106 6.45312H110.738C110.697 5.90625 110.488 5.45833 110.113 5.10938C109.744 4.75521 109.285 4.57812 108.738 4.57812C108.004 4.57812 107.434 4.84375 107.027 5.375C106.626 5.90104 106.426 6.66406 106.426 7.66406V7.9375C106.426 8.91146 106.626 9.66146 107.027 10.1875C107.429 10.7135 108.001 10.9766 108.746 10.9766ZM116.332 1.5V3.54688H117.91V4.66406H116.332V9.90625C116.332 10.2448 116.402 10.5 116.542 10.6719C116.683 10.8385 116.923 10.9219 117.261 10.9219C117.428 10.9219 117.657 10.8906 117.949 10.8281V12C117.569 12.1042 117.199 12.1562 116.839 12.1562C116.194 12.1562 115.707 11.9609 115.378 11.5703C115.05 11.1797 114.886 10.625 114.886 9.90625V4.66406H113.347V3.54688H114.886V1.5H116.332Z" fill="white"/>
</svg>
