<svg width="71" height="13" viewBox="0 0 71 13" fill="none" xmlns="http://www.w3.org/2000/svg">
<path d="M1.84008 10.7734H7.23071V12H0.332272V0.625H1.84008V10.7734ZM12.8629 12.1562C11.7171 12.1562 10.7848 11.7812 10.066 11.0312C9.34727 10.276 8.9879 9.26823 8.9879 8.00781V7.74219C8.9879 6.90365 9.14675 6.15625 9.46446 5.5C9.78738 4.83854 10.2353 4.32292 10.8082 3.95312C11.3863 3.57812 12.0113 3.39062 12.6832 3.39062C13.7822 3.39062 14.6363 3.7526 15.2457 4.47656C15.8551 5.20052 16.1598 6.23698 16.1598 7.58594V8.1875H10.4332C10.454 9.02083 10.6962 9.69531 11.1598 10.2109C11.6285 10.7214 12.2223 10.9766 12.941 10.9766C13.4514 10.9766 13.8837 10.8724 14.2379 10.6641C14.5921 10.4557 14.902 10.1797 15.1676 9.83594L16.0504 10.5234C15.3421 11.612 14.2796 12.1562 12.8629 12.1562ZM12.6832 4.57812C12.0999 4.57812 11.6103 4.79167 11.2145 5.21875C10.8186 5.64062 10.5738 6.23438 10.4801 7H14.7145V6.89062C14.6728 6.15625 14.4749 5.58854 14.1207 5.1875C13.7665 4.78125 13.2874 4.57812 12.6832 4.57812ZM20.4404 1.5V3.54688H22.0185V4.66406H20.4404V9.90625C20.4404 10.2448 20.5107 10.5 20.6513 10.6719C20.792 10.8385 21.0315 10.9219 21.3701 10.9219C21.5368 10.9219 21.7659 10.8906 22.0576 10.8281V12C21.6774 12.1042 21.3076 12.1562 20.9482 12.1562C20.3024 12.1562 19.8154 11.9609 19.4873 11.5703C19.1591 11.1797 18.9951 10.625 18.9951 9.90625V4.66406H17.456V3.54688H18.9951V1.5H20.4404ZM24.4554 3.82812L23.6351 3.26562C24.1195 2.58854 24.3695 1.875 24.3851 1.125V0H25.8148V1.01562C25.8096 1.53646 25.6794 2.05729 25.4241 2.57812C25.1741 3.09375 24.8512 3.51042 24.4554 3.82812ZM32.2438 9.75781C32.2438 9.36719 32.0954 9.0651 31.7985 8.85156C31.5069 8.63281 30.9938 8.44531 30.2595 8.28906C29.5303 8.13281 28.9496 7.94531 28.5173 7.72656C28.0902 7.50781 27.7725 7.2474 27.5641 6.94531C27.361 6.64323 27.2595 6.28385 27.2595 5.86719C27.2595 5.17448 27.5511 4.58854 28.1345 4.10938C28.723 3.63021 29.473 3.39062 30.3845 3.39062C31.3428 3.39062 32.1188 3.63802 32.7126 4.13281C33.3115 4.6276 33.611 5.26042 33.611 6.03125H32.1579C32.1579 5.63542 31.9886 5.29427 31.6501 5.00781C31.3168 4.72135 30.8949 4.57812 30.3845 4.57812C29.8584 4.57812 29.447 4.69271 29.1501 4.92188C28.8532 5.15104 28.7048 5.45052 28.7048 5.82031C28.7048 6.16927 28.8428 6.43229 29.1188 6.60938C29.3949 6.78646 29.8923 6.95573 30.611 7.11719C31.335 7.27865 31.9209 7.47135 32.3688 7.69531C32.8168 7.91927 33.1475 8.1901 33.361 8.50781C33.5798 8.82031 33.6891 9.20312 33.6891 9.65625C33.6891 10.4115 33.3871 11.0182 32.7829 11.4766C32.1787 11.9297 31.3949 12.1562 30.4313 12.1562C29.7543 12.1562 29.1553 12.0365 28.6345 11.7969C28.1136 11.5573 27.7048 11.224 27.4079 10.7969C27.1162 10.3646 26.9704 9.89844 26.9704 9.39844H28.4157C28.4418 9.88281 28.6345 10.2682 28.9938 10.5547C29.3584 10.8359 29.8376 10.9766 30.4313 10.9766C30.9782 10.9766 31.4157 10.8672 31.7438 10.6484C32.0772 10.4245 32.2438 10.1276 32.2438 9.75781ZM48.5941 1.85938H44.9379V12H43.4457V1.85938H39.7973V0.625H48.5941V1.85938ZM55.0232 12C54.9399 11.8333 54.8722 11.5365 54.8201 11.1094C54.1482 11.8073 53.3461 12.1562 52.4138 12.1562C51.5805 12.1562 50.8956 11.9219 50.3591 11.4531C49.8279 10.9792 49.5623 10.3802 49.5623 9.65625C49.5623 8.77604 49.8956 8.09375 50.5623 7.60938C51.2341 7.11979 52.1769 6.875 53.3904 6.875H54.7966V6.21094C54.7966 5.70573 54.6456 5.30469 54.3435 5.00781C54.0414 4.70573 53.5961 4.55469 53.0076 4.55469C52.492 4.55469 52.0597 4.6849 51.7107 4.94531C51.3618 5.20573 51.1873 5.52083 51.1873 5.89062H49.7341C49.7341 5.46875 49.8826 5.0625 50.1795 4.67188C50.4815 4.27604 50.8878 3.96354 51.3982 3.73438C51.9138 3.50521 52.4789 3.39062 53.0935 3.39062C54.0675 3.39062 54.8305 3.63542 55.3826 4.125C55.9347 4.60938 56.2211 5.27865 56.242 6.13281V10.0234C56.242 10.7995 56.3409 11.4167 56.5388 11.875V12H55.0232ZM52.6248 10.8984C53.0779 10.8984 53.5076 10.7812 53.9138 10.5469C54.3201 10.3125 54.6144 10.0078 54.7966 9.63281V7.89844H53.6638C51.893 7.89844 51.0076 8.41667 51.0076 9.45312C51.0076 9.90625 51.1586 10.2604 51.4607 10.5156C51.7628 10.7708 52.1508 10.8984 52.6248 10.8984ZM60.7179 12H59.2726V0H60.7179V12ZM66.0376 8.08594L65.1313 9.03125V12H63.686V0H65.1313V7.25781L65.9048 6.32812L68.5376 3.54688H70.2954L67.0063 7.07812L70.6782 12H68.9829L66.0376 8.08594Z" fill="white"/>
</svg>
