<svg width="379" height="25" viewBox="0 0 379 25" fill="none" xmlns="http://www.w3.org/2000/svg">
<path d="M8.73749 13.8594C6.16457 13.1198 4.28957 12.2135 3.11249 11.1406C1.94582 10.0573 1.36249 8.72396 1.36249 7.14062C1.36249 5.34896 2.07603 3.86979 3.50311 2.70312C4.94061 1.52604 6.8052 0.9375 9.09686 0.9375C10.6594 0.9375 12.05 1.23958 13.2687 1.84375C14.4979 2.44792 15.4458 3.28125 16.1125 4.34375C16.7896 5.40625 17.1281 6.56771 17.1281 7.82812H14.1125C14.1125 6.45312 13.675 5.375 12.8 4.59375C11.925 3.80208 10.6906 3.40625 9.09686 3.40625C7.6177 3.40625 6.46145 3.73438 5.62811 4.39062C4.8052 5.03646 4.39374 5.9375 4.39374 7.09375C4.39374 8.02083 4.78436 8.80729 5.56561 9.45312C6.35728 10.0885 7.69582 10.6719 9.58124 11.2031C11.4771 11.7344 12.9562 12.3229 14.0187 12.9688C15.0917 13.6042 15.8833 14.349 16.3937 15.2031C16.9146 16.0573 17.175 17.0625 17.175 18.2188C17.175 20.0625 16.4562 21.5417 15.0187 22.6562C13.5812 23.7604 11.6594 24.3125 9.25311 24.3125C7.69061 24.3125 6.23228 24.0156 4.87811 23.4219C3.52395 22.8177 2.47707 21.9948 1.73749 20.9531C1.00832 19.9115 0.643738 18.7292 0.643738 17.4062H3.65936C3.65936 18.7812 4.16457 19.8698 5.17499 20.6719C6.19582 21.4635 7.5552 21.8594 9.25311 21.8594C10.8364 21.8594 12.05 21.5365 12.8937 20.8906C13.7375 20.2448 14.1594 19.3646 14.1594 18.25C14.1594 17.1354 13.7687 16.276 12.9875 15.6719C12.2062 15.0573 10.7896 14.4531 8.73749 13.8594ZM24.9 7.09375L24.9781 8.96875C26.2177 7.51042 27.8896 6.78125 29.9937 6.78125C32.3583 6.78125 33.9677 7.6875 34.8219 9.5C35.3844 8.6875 36.1135 8.03125 37.0094 7.53125C37.9156 7.03125 38.9833 6.78125 40.2125 6.78125C43.9208 6.78125 45.8062 8.74479 45.8687 12.6719V24H42.9781V12.8438C42.9781 11.6354 42.7021 10.7344 42.15 10.1406C41.5979 9.53646 40.6708 9.23438 39.3687 9.23438C38.2958 9.23438 37.4052 9.55729 36.6969 10.2031C35.9885 10.8385 35.5771 11.6979 35.4625 12.7812V24H32.5562V12.9219C32.5562 10.4635 31.3531 9.23438 28.9469 9.23438C27.051 9.23438 25.7542 10.0417 25.0562 11.6562V24H22.1656V7.09375H24.9ZM62.2812 24C62.1146 23.6667 61.9792 23.0729 61.875 22.2188C60.5312 23.6146 58.9271 24.3125 57.0625 24.3125C55.3958 24.3125 54.026 23.8438 52.9531 22.9062C51.8906 21.9583 51.3594 20.7604 51.3594 19.3125C51.3594 17.5521 52.026 16.1875 53.3594 15.2188C54.7031 14.2396 56.5885 13.75 59.0156 13.75H61.8281V12.4219C61.8281 11.4115 61.526 10.6094 60.9219 10.0156C60.3177 9.41146 59.4271 9.10938 58.25 9.10938C57.2187 9.10938 56.3542 9.36979 55.6562 9.89062C54.9583 10.4115 54.6094 11.0417 54.6094 11.7812H51.7031C51.7031 10.9375 52 10.125 52.5937 9.34375C53.1979 8.55208 54.0104 7.92708 55.0312 7.46875C56.0625 7.01042 57.1927 6.78125 58.4219 6.78125C60.3698 6.78125 61.8958 7.27083 63 8.25C64.1042 9.21875 64.6771 10.5573 64.7187 12.2656V20.0469C64.7187 21.599 64.9167 22.8333 65.3125 23.75V24H62.2812ZM57.4844 21.7969C58.3906 21.7969 59.25 21.5625 60.0625 21.0938C60.875 20.625 61.4635 20.0156 61.8281 19.2656V15.7969H59.5625C56.0208 15.7969 54.25 16.8333 54.25 18.9062C54.25 19.8125 54.5521 20.5208 55.1562 21.0312C55.7604 21.5417 56.5364 21.7969 57.4844 21.7969ZM79.0219 9.6875C78.5844 9.61458 78.1104 9.57812 77.6 9.57812C75.7042 9.57812 74.4177 10.3854 73.7406 12V24H70.85V7.09375H73.6625L73.7094 9.04688C74.6573 7.53646 76.001 6.78125 77.7406 6.78125C78.3031 6.78125 78.7302 6.85417 79.0219 7V9.6875ZM87.9969 3V7.09375H91.1531V9.32812H87.9969V19.8125C87.9969 20.4896 88.1375 21 88.4187 21.3438C88.7 21.6771 89.1792 21.8438 89.8562 21.8438C90.1896 21.8438 90.6479 21.7812 91.2312 21.6562V24C90.4708 24.2083 89.7312 24.3125 89.0125 24.3125C87.7208 24.3125 86.7469 23.9219 86.0906 23.1406C85.4344 22.3594 85.1062 21.25 85.1062 19.8125V9.32812H82.0281V7.09375H85.1062V3H87.9969ZM123.619 24H120.603V13.4844H109.134V24H106.134V1.25H109.134V11.0312H120.603V1.25H123.619V24ZM129.328 15.3906C129.328 13.7344 129.651 12.2448 130.297 10.9219C130.953 9.59896 131.859 8.57812 133.016 7.85938C134.182 7.14062 135.51 6.78125 137 6.78125C139.302 6.78125 141.161 7.57812 142.578 9.17188C144.005 10.7656 144.719 12.8854 144.719 15.5312V15.7344C144.719 17.3802 144.401 18.8594 143.766 20.1719C143.141 21.474 142.24 22.4896 141.062 23.2188C139.896 23.9479 138.552 24.3125 137.031 24.3125C134.74 24.3125 132.88 23.5156 131.453 21.9219C130.036 20.3281 129.328 18.2188 129.328 15.5938V15.3906ZM132.234 15.7344C132.234 17.6094 132.667 19.1146 133.531 20.25C134.406 21.3854 135.573 21.9531 137.031 21.9531C138.5 21.9531 139.667 21.3802 140.531 20.2344C141.396 19.0781 141.828 17.4635 141.828 15.3906C141.828 13.5365 141.385 12.0365 140.5 10.8906C139.625 9.73438 138.458 9.15625 137 9.15625C135.573 9.15625 134.422 9.72396 133.547 10.8594C132.672 11.9948 132.234 13.6198 132.234 15.7344ZM152.662 7.09375L152.741 8.96875C153.98 7.51042 155.652 6.78125 157.756 6.78125C160.121 6.78125 161.73 7.6875 162.584 9.5C163.147 8.6875 163.876 8.03125 164.772 7.53125C165.678 7.03125 166.746 6.78125 167.975 6.78125C171.683 6.78125 173.569 8.74479 173.631 12.6719V24H170.741V12.8438C170.741 11.6354 170.465 10.7344 169.912 10.1406C169.36 9.53646 168.433 9.23438 167.131 9.23438C166.058 9.23438 165.168 9.55729 164.459 10.2031C163.751 10.8385 163.34 11.6979 163.225 12.7812V24H160.319V12.9219C160.319 10.4635 159.116 9.23438 156.709 9.23438C154.814 9.23438 153.517 10.0417 152.819 11.6562V24H149.928V7.09375H152.662ZM186.622 24.3125C184.33 24.3125 182.466 23.5625 181.028 22.0625C179.591 20.5521 178.872 18.5365 178.872 16.0156V15.4844C178.872 13.8073 179.19 12.3125 179.825 11C180.471 9.67708 181.367 8.64583 182.512 7.90625C183.669 7.15625 184.919 6.78125 186.262 6.78125C188.46 6.78125 190.169 7.50521 191.387 8.95312C192.606 10.401 193.216 12.474 193.216 15.1719V16.375H181.762C181.804 18.0417 182.289 19.3906 183.216 20.4219C184.153 21.4427 185.341 21.9531 186.778 21.9531C187.799 21.9531 188.664 21.7448 189.372 21.3281C190.08 20.9115 190.7 20.3594 191.231 19.6719L192.997 21.0469C191.58 23.224 189.455 24.3125 186.622 24.3125ZM186.262 9.15625C185.096 9.15625 184.117 9.58333 183.325 10.4375C182.533 11.2812 182.044 12.4688 181.856 14H190.325V13.7812C190.242 12.3125 189.846 11.1771 189.137 10.375C188.429 9.5625 187.471 9.15625 186.262 9.15625ZM211.384 24H208.384V1.25H211.384V24ZM220.766 7.09375L220.859 9.21875C222.151 7.59375 223.839 6.78125 225.922 6.78125C229.495 6.78125 231.297 8.79688 231.328 12.8281V24H228.437V12.8125C228.427 11.5938 228.146 10.6927 227.594 10.1094C227.052 9.52604 226.203 9.23438 225.047 9.23438C224.109 9.23438 223.286 9.48438 222.578 9.98438C221.87 10.4844 221.318 11.1406 220.922 11.9531V24H218.031V7.09375H220.766ZM247.131 19.5156C247.131 18.7344 246.834 18.1302 246.241 17.7031C245.657 17.2656 244.631 16.8906 243.162 16.5781C241.704 16.2656 240.543 15.8906 239.678 15.4531C238.824 15.0156 238.189 14.4948 237.772 13.8906C237.366 13.2865 237.162 12.5677 237.162 11.7344C237.162 10.349 237.746 9.17708 238.912 8.21875C240.09 7.26042 241.59 6.78125 243.412 6.78125C245.329 6.78125 246.881 7.27604 248.069 8.26562C249.267 9.25521 249.866 10.5208 249.866 12.0625H246.959C246.959 11.2708 246.621 10.5885 245.944 10.0156C245.277 9.44271 244.433 9.15625 243.412 9.15625C242.36 9.15625 241.537 9.38542 240.944 9.84375C240.35 10.3021 240.053 10.901 240.053 11.6406C240.053 12.3385 240.329 12.8646 240.881 13.2188C241.433 13.5729 242.428 13.9115 243.866 14.2344C245.314 14.5573 246.485 14.9427 247.381 15.3906C248.277 15.8385 248.939 16.3802 249.366 17.0156C249.803 17.6406 250.022 18.4062 250.022 19.3125C250.022 20.8229 249.418 22.0365 248.209 22.9531C247.001 23.8594 245.433 24.3125 243.506 24.3125C242.152 24.3125 240.954 24.0729 239.912 23.5938C238.871 23.1146 238.053 22.4479 237.459 21.5938C236.876 20.7292 236.584 19.7969 236.584 18.7969H239.475C239.527 19.7656 239.912 20.5365 240.631 21.1094C241.36 21.6719 242.319 21.9531 243.506 21.9531C244.6 21.9531 245.475 21.7344 246.131 21.2969C246.798 20.849 247.131 20.2552 247.131 19.5156ZM259.309 3V7.09375H262.466V9.32812H259.309V19.8125C259.309 20.4896 259.45 21 259.731 21.3438C260.012 21.6771 260.492 21.8438 261.169 21.8438C261.502 21.8438 261.96 21.7812 262.544 21.6562V24C261.783 24.2083 261.044 24.3125 260.325 24.3125C259.033 24.3125 258.059 23.9219 257.403 23.1406C256.747 22.3594 256.419 21.25 256.419 19.8125V9.32812H253.341V7.09375H256.419V3H259.309ZM277.894 24C277.727 23.6667 277.592 23.0729 277.487 22.2188C276.144 23.6146 274.54 24.3125 272.675 24.3125C271.008 24.3125 269.639 23.8438 268.566 22.9062C267.503 21.9583 266.972 20.7604 266.972 19.3125C266.972 17.5521 267.639 16.1875 268.972 15.2188C270.316 14.2396 272.201 13.75 274.628 13.75H277.441V12.4219C277.441 11.4115 277.139 10.6094 276.534 10.0156C275.93 9.41146 275.04 9.10938 273.862 9.10938C272.831 9.10938 271.967 9.36979 271.269 9.89062C270.571 10.4115 270.222 11.0417 270.222 11.7812H267.316C267.316 10.9375 267.612 10.125 268.206 9.34375C268.81 8.55208 269.623 7.92708 270.644 7.46875C271.675 7.01042 272.805 6.78125 274.034 6.78125C275.982 6.78125 277.508 7.27083 278.612 8.25C279.717 9.21875 280.29 10.5573 280.331 12.2656V20.0469C280.331 21.599 280.529 22.8333 280.925 23.75V24H277.894ZM273.097 21.7969C274.003 21.7969 274.862 21.5625 275.675 21.0938C276.487 20.625 277.076 20.0156 277.441 19.2656V15.7969H275.175C271.633 15.7969 269.862 16.8333 269.862 18.9062C269.862 19.8125 270.165 20.5208 270.769 21.0312C271.373 21.5417 272.149 21.7969 273.097 21.7969ZM289.603 24H286.712V0H289.603V24ZM298.984 24H296.094V0H298.984V24ZM315.662 24C315.496 23.6667 315.36 23.0729 315.256 22.2188C313.912 23.6146 312.308 24.3125 310.444 24.3125C308.777 24.3125 307.407 23.8438 306.334 22.9062C305.272 21.9583 304.741 20.7604 304.741 19.3125C304.741 17.5521 305.407 16.1875 306.741 15.2188C308.084 14.2396 309.97 13.75 312.397 13.75H315.209V12.4219C315.209 11.4115 314.907 10.6094 314.303 10.0156C313.699 9.41146 312.808 9.10938 311.631 9.10938C310.6 9.10938 309.735 9.36979 309.037 9.89062C308.34 10.4115 307.991 11.0417 307.991 11.7812H305.084C305.084 10.9375 305.381 10.125 305.975 9.34375C306.579 8.55208 307.392 7.92708 308.412 7.46875C309.444 7.01042 310.574 6.78125 311.803 6.78125C313.751 6.78125 315.277 7.27083 316.381 8.25C317.485 9.21875 318.058 10.5573 318.1 12.2656V20.0469C318.1 21.599 318.298 22.8333 318.694 23.75V24H315.662ZM310.866 21.7969C311.772 21.7969 312.631 21.5625 313.444 21.0938C314.256 20.625 314.845 20.0156 315.209 19.2656V15.7969H312.944C309.402 15.7969 307.631 16.8333 307.631 18.9062C307.631 19.8125 307.933 20.5208 308.537 21.0312C309.142 21.5417 309.918 21.7969 310.866 21.7969ZM328.153 3V7.09375H331.309V9.32812H328.153V19.8125C328.153 20.4896 328.294 21 328.575 21.3438C328.856 21.6771 329.335 21.8438 330.012 21.8438C330.346 21.8438 330.804 21.7812 331.387 21.6562V24C330.627 24.2083 329.887 24.3125 329.169 24.3125C327.877 24.3125 326.903 23.9219 326.247 23.1406C325.591 22.3594 325.262 21.25 325.262 19.8125V9.32812H322.184V7.09375H325.262V3H328.153ZM339.441 24H336.55V7.09375H339.441V24ZM336.316 2.60938C336.316 2.14062 336.456 1.74479 336.737 1.42188C337.029 1.09896 337.456 0.9375 338.019 0.9375C338.581 0.9375 339.008 1.09896 339.3 1.42188C339.592 1.74479 339.737 2.14062 339.737 2.60938C339.737 3.07812 339.592 3.46875 339.3 3.78125C339.008 4.09375 338.581 4.25 338.019 4.25C337.456 4.25 337.029 4.09375 336.737 3.78125C336.456 3.46875 336.316 3.07812 336.316 2.60938ZM344.916 15.3906C344.916 13.7344 345.239 12.2448 345.884 10.9219C346.541 9.59896 347.447 8.57812 348.603 7.85938C349.77 7.14062 351.098 6.78125 352.587 6.78125C354.89 6.78125 356.749 7.57812 358.166 9.17188C359.593 10.7656 360.306 12.8854 360.306 15.5312V15.7344C360.306 17.3802 359.989 18.8594 359.353 20.1719C358.728 21.474 357.827 22.4896 356.65 23.2188C355.483 23.9479 354.14 24.3125 352.619 24.3125C350.327 24.3125 348.468 23.5156 347.041 21.9219C345.624 20.3281 344.916 18.2188 344.916 15.5938V15.3906ZM347.822 15.7344C347.822 17.6094 348.254 19.1146 349.119 20.25C349.994 21.3854 351.16 21.9531 352.619 21.9531C354.087 21.9531 355.254 21.3802 356.119 20.2344C356.983 19.0781 357.416 17.4635 357.416 15.3906C357.416 13.5365 356.973 12.0365 356.087 10.8906C355.212 9.73438 354.046 9.15625 352.587 9.15625C351.16 9.15625 350.009 9.72396 349.134 10.8594C348.259 11.9948 347.822 13.6198 347.822 15.7344ZM368.266 7.09375L368.359 9.21875C369.651 7.59375 371.339 6.78125 373.422 6.78125C376.995 6.78125 378.797 8.79688 378.828 12.8281V24H375.938V12.8125C375.927 11.5938 375.646 10.6927 375.094 10.1094C374.552 9.52604 373.703 9.23438 372.547 9.23438C371.609 9.23438 370.786 9.48438 370.078 9.98438C369.37 10.4844 368.818 11.1406 368.422 11.9531V24H365.531V7.09375H368.266Z" fill="white"/>
</svg>
