<svg width="181" height="27" viewBox="0 0 181 27" fill="none" xmlns="http://www.w3.org/2000/svg">
<path d="M7.17578 12.127C4.92448 11.4798 3.28385 10.6868 2.25391 9.74805C1.23307 8.80013 0.722656 7.63346 0.722656 6.24805C0.722656 4.68034 1.34701 3.38607 2.5957 2.36523C3.85352 1.33529 5.48503 0.820312 7.49023 0.820312C8.85742 0.820312 10.0742 1.08464 11.1406 1.61328C12.2161 2.14193 13.0456 2.87109 13.6289 3.80078C14.2214 4.73047 14.5176 5.74674 14.5176 6.84961H11.8789C11.8789 5.64648 11.4961 4.70312 10.7305 4.01953C9.96484 3.32682 8.88477 2.98047 7.49023 2.98047C6.19596 2.98047 5.18424 3.26758 4.45508 3.8418C3.73503 4.4069 3.375 5.19531 3.375 6.20703C3.375 7.01823 3.7168 7.70638 4.40039 8.27148C5.0931 8.82747 6.26432 9.33789 7.91406 9.80273C9.57292 10.2676 10.8672 10.7826 11.7969 11.3477C12.7357 11.9036 13.4284 12.5553 13.875 13.3027C14.3307 14.0501 14.5586 14.9297 14.5586 15.9414C14.5586 17.5547 13.9297 18.849 12.6719 19.8242C11.4141 20.7904 9.73242 21.2734 7.62695 21.2734C6.25977 21.2734 4.98372 21.0137 3.79883 20.4941C2.61393 19.9655 1.69792 19.2454 1.05078 18.334C0.41276 17.4225 0.09375 16.388 0.09375 15.2305H2.73242C2.73242 16.4336 3.17448 17.3861 4.05859 18.0879C4.95182 18.7806 6.14128 19.127 7.62695 19.127C9.01237 19.127 10.0742 18.8444 10.8125 18.2793C11.5508 17.7142 11.9199 16.944 11.9199 15.9688C11.9199 14.9935 11.5781 14.2415 10.8945 13.7129C10.2109 13.1751 8.97135 12.6465 7.17578 12.127ZM31.4352 13.7676C31.4352 16.0189 30.9202 17.8327 29.8902 19.209C28.8603 20.5853 27.4658 21.2734 25.7066 21.2734C23.9111 21.2734 22.4983 20.7038 21.4684 19.5645V26.6875H18.9391V6.20703H21.2496L21.3727 7.84766C22.4026 6.57161 23.8336 5.93359 25.6656 5.93359C27.443 5.93359 28.8466 6.60352 29.8766 7.94336C30.9156 9.2832 31.4352 11.1471 31.4352 13.5352V13.7676ZM28.9059 13.4805C28.9059 11.8125 28.5504 10.4954 27.8395 9.5293C27.1285 8.56315 26.1533 8.08008 24.9137 8.08008C23.3824 8.08008 22.234 8.75911 21.4684 10.1172V17.1855C22.2249 18.5345 23.3824 19.209 24.941 19.209C26.1533 19.209 27.1148 18.7305 27.8258 17.7734C28.5458 16.8073 28.9059 15.3763 28.9059 13.4805ZM45.1945 21C45.0487 20.7083 44.9302 20.1888 44.8391 19.4414C43.6633 20.6628 42.2596 21.2734 40.6281 21.2734C39.1698 21.2734 37.9712 20.8633 37.0324 20.043C36.1027 19.2135 35.6379 18.1654 35.6379 16.8984C35.6379 15.3581 36.2212 14.1641 37.3879 13.3164C38.5637 12.4596 40.2134 12.0312 42.3371 12.0312H44.798V10.8691C44.798 9.98503 44.5337 9.2832 44.0051 8.76367C43.4764 8.23503 42.6971 7.9707 41.6672 7.9707C40.7648 7.9707 40.0083 8.19857 39.3977 8.6543C38.787 9.11003 38.4816 9.66146 38.4816 10.3086H35.9387C35.9387 9.57031 36.1984 8.85938 36.718 8.17578C37.2466 7.48307 37.9576 6.9362 38.8508 6.53516C39.7531 6.13411 40.7421 5.93359 41.8176 5.93359C43.522 5.93359 44.8573 6.36198 45.8234 7.21875C46.7896 8.06641 47.2909 9.23763 47.3273 10.7324V17.541C47.3273 18.8991 47.5005 19.9792 47.8469 20.7812V21H45.1945ZM40.9973 19.0723C41.7902 19.0723 42.5422 18.8672 43.2531 18.457C43.9641 18.0469 44.479 17.5137 44.798 16.8574V13.8223H42.8156C39.7167 13.8223 38.1672 14.7292 38.1672 16.543C38.1672 17.3359 38.4315 17.9557 38.9602 18.4023C39.4888 18.849 40.1678 19.0723 40.9973 19.0723ZM59.8426 8.47656C59.4598 8.41276 59.0451 8.38086 58.5984 8.38086C56.9396 8.38086 55.8139 9.08724 55.2215 10.5V21H52.6922V6.20703H55.1531L55.1941 7.91602C56.0236 6.5944 57.1993 5.93359 58.7215 5.93359C59.2137 5.93359 59.5874 5.9974 59.8426 6.125V8.47656ZM67.7094 14.1504L66.1234 15.8047V21H63.5941V0H66.1234V12.7012L67.477 11.0742L72.0844 6.20703H75.1605L69.4047 12.3867L75.8305 21H72.8637L67.7094 14.1504ZM81.9199 21H79.3906V0H81.9199V21ZM90.1285 21H87.5992V6.20703H90.1285V21ZM87.3941 2.2832C87.3941 1.87305 87.5172 1.52669 87.7633 1.24414C88.0185 0.961589 88.3922 0.820312 88.8844 0.820312C89.3766 0.820312 89.7503 0.961589 90.0055 1.24414C90.2607 1.52669 90.3883 1.87305 90.3883 2.2832C90.3883 2.69336 90.2607 3.03516 90.0055 3.30859C89.7503 3.58203 89.3766 3.71875 88.8844 3.71875C88.3922 3.71875 88.0185 3.58203 87.7633 3.30859C87.5172 3.03516 87.3941 2.69336 87.3941 2.2832ZM99.0207 2.625V6.20703H101.782V8.16211H99.0207V17.3359C99.0207 17.9284 99.1438 18.375 99.3898 18.6758C99.6359 18.9674 100.055 19.1133 100.648 19.1133C100.939 19.1133 101.34 19.0586 101.851 18.9492V21C101.185 21.1823 100.538 21.2734 99.9094 21.2734C98.7792 21.2734 97.927 20.9316 97.3527 20.248C96.7785 19.5645 96.4914 18.5938 96.4914 17.3359V8.16211H93.798V6.20703H96.4914V2.625H99.0207ZM112.288 21.2734C110.283 21.2734 108.651 20.6172 107.393 19.3047C106.136 17.9831 105.507 16.2194 105.507 14.0137V13.5488C105.507 12.0814 105.785 10.7734 106.341 9.625C106.906 8.46745 107.69 7.5651 108.692 6.91797C109.704 6.26172 110.798 5.93359 111.973 5.93359C113.897 5.93359 115.391 6.56706 116.458 7.83398C117.524 9.10091 118.057 10.9147 118.057 13.2754V14.3281H108.036C108.072 15.7865 108.496 16.9668 109.307 17.8691C110.128 18.7624 111.167 19.209 112.425 19.209C113.318 19.209 114.074 19.0267 114.694 18.6621C115.314 18.2975 115.856 17.8145 116.321 17.2129L117.866 18.416C116.626 20.321 114.767 21.2734 112.288 21.2734ZM111.973 8.01172C110.953 8.01172 110.096 8.38542 109.403 9.13281C108.71 9.87109 108.282 10.9102 108.118 12.25H115.528V12.0586C115.455 10.7734 115.109 9.77995 114.489 9.07812C113.869 8.36719 113.031 8.01172 111.973 8.01172ZM142.131 15.8047H133.791L131.918 21H129.211L136.812 1.09375H139.109L146.725 21H144.031L142.131 15.8047ZM134.584 13.6445H141.352L137.961 4.33398L134.584 13.6445ZM162.904 13.7676C162.904 16.0189 162.389 17.8327 161.359 19.209C160.329 20.5853 158.934 21.2734 157.175 21.2734C155.38 21.2734 153.967 20.7038 152.937 19.5645V26.6875H150.408V6.20703H152.718L152.841 7.84766C153.871 6.57161 155.302 5.93359 157.134 5.93359C158.912 5.93359 160.315 6.60352 161.345 7.94336C162.384 9.2832 162.904 11.1471 162.904 13.5352V13.7676ZM160.375 13.4805C160.375 11.8125 160.019 10.4954 159.308 9.5293C158.597 8.56315 157.622 8.08008 156.382 8.08008C154.851 8.08008 153.703 8.75911 152.937 10.1172V17.1855C153.694 18.5345 154.851 19.209 156.41 19.209C157.622 19.209 158.584 18.7305 159.295 17.7734C160.015 16.8073 160.375 15.3763 160.375 13.4805ZM180.027 13.7676C180.027 16.0189 179.512 17.8327 178.482 19.209C177.452 20.5853 176.057 21.2734 174.298 21.2734C172.502 21.2734 171.09 20.7038 170.06 19.5645V26.6875H167.53V6.20703H169.841L169.964 7.84766C170.994 6.57161 172.425 5.93359 174.257 5.93359C176.034 5.93359 177.438 6.60352 178.468 7.94336C179.507 9.2832 180.027 11.1471 180.027 13.5352V13.7676ZM177.497 13.4805C177.497 11.8125 177.142 10.4954 176.431 9.5293C175.72 8.56315 174.745 8.08008 173.505 8.08008C171.974 8.08008 170.825 8.75911 170.06 10.1172V17.1855C170.816 18.5345 171.974 19.209 173.532 19.209C174.745 19.209 175.706 18.7305 176.417 17.7734C177.137 16.8073 177.497 15.3763 177.497 13.4805Z" fill="white"/>
</svg>
