<svg width="256" height="27" viewBox="0 0 256 27" fill="none" xmlns="http://www.w3.org/2000/svg">
<path d="M15.9531 14.6836C15.707 16.7891 14.9277 18.416 13.6152 19.5645C12.3118 20.7038 10.5755 21.2734 8.40625 21.2734C6.05469 21.2734 4.16797 20.4303 2.74609 18.7441C1.33333 17.0579 0.626953 14.8021 0.626953 11.9766V10.0625C0.626953 8.21224 0.955078 6.58529 1.61133 5.18164C2.27669 3.77799 3.21549 2.70247 4.42773 1.95508C5.63997 1.19857 7.04362 0.820312 8.63867 0.820312C10.7533 0.820312 12.4486 1.41276 13.7246 2.59766C15.0007 3.77344 15.7435 5.40495 15.9531 7.49219H13.3145C13.0866 5.90625 12.5898 4.75781 11.8242 4.04688C11.0677 3.33594 10.0059 2.98047 8.63867 2.98047C6.96159 2.98047 5.64453 3.60026 4.6875 4.83984C3.73958 6.07943 3.26562 7.8431 3.26562 10.1309V12.0586C3.26562 14.2188 3.7168 15.9368 4.61914 17.2129C5.52148 18.4889 6.78385 19.127 8.40625 19.127C9.86458 19.127 10.9811 18.7988 11.7559 18.1426C12.5397 17.4772 13.0592 16.3242 13.3145 14.6836H15.9531ZM29.6852 21C29.5393 20.7083 29.4208 20.1888 29.3297 19.4414C28.1539 20.6628 26.7503 21.2734 25.1187 21.2734C23.6604 21.2734 22.4618 20.8633 21.523 20.043C20.5934 19.2135 20.1285 18.1654 20.1285 16.8984C20.1285 15.3581 20.7118 14.1641 21.8785 13.3164C23.0543 12.4596 24.704 12.0312 26.8277 12.0312H29.2887V10.8691C29.2887 9.98503 29.0243 9.2832 28.4957 8.76367C27.9671 8.23503 27.1878 7.9707 26.1578 7.9707C25.2555 7.9707 24.499 8.19857 23.8883 8.6543C23.2776 9.11003 22.9723 9.66146 22.9723 10.3086H20.4293C20.4293 9.57031 20.6891 8.85938 21.2086 8.17578C21.7372 7.48307 22.4482 6.9362 23.3414 6.53516C24.2437 6.13411 25.2327 5.93359 26.3082 5.93359C28.0126 5.93359 29.3479 6.36198 30.3141 7.21875C31.2802 8.06641 31.7815 9.23763 31.818 10.7324V17.541C31.818 18.8991 31.9911 19.9792 32.3375 20.7812V21H29.6852ZM25.4879 19.0723C26.2809 19.0723 27.0328 18.8672 27.7437 18.457C28.4547 18.0469 28.9697 17.5137 29.2887 16.8574V13.8223H27.3062C24.2073 13.8223 22.6578 14.7292 22.6578 16.543C22.6578 17.3359 22.9221 17.9557 23.4508 18.4023C23.9794 18.849 24.6585 19.0723 25.4879 19.0723ZM44.3332 8.47656C43.9504 8.41276 43.5357 8.38086 43.0891 8.38086C41.4302 8.38086 40.3046 9.08724 39.7121 10.5V21H37.1828V6.20703H39.6437L39.6848 7.91602C40.5142 6.5944 41.69 5.93359 43.2121 5.93359C43.7043 5.93359 44.078 5.9974 44.3332 6.125V8.47656ZM53.3348 13.5762H46.6629V11.5117H53.3348V13.5762ZM64.9066 12.9473H60.2309V21H57.5922V1.09375H64.182C66.4242 1.09375 68.1469 1.60417 69.35 2.625C70.5622 3.64583 71.1684 5.13151 71.1684 7.08203C71.1684 8.32161 70.8311 9.40169 70.1566 10.3223C69.4913 11.2428 68.5616 11.931 67.3676 12.3867L72.0434 20.8359V21H69.227L64.9066 12.9473ZM60.2309 10.8008H64.2641C65.5674 10.8008 66.602 10.4635 67.3676 9.78906C68.1423 9.11458 68.5297 8.21224 68.5297 7.08203C68.5297 5.85156 68.1605 4.9082 67.4223 4.25195C66.6931 3.5957 65.6358 3.26302 64.2504 3.25391H60.2309V10.8008ZM84.9961 21C84.8503 20.7083 84.7318 20.1888 84.6406 19.4414C83.4648 20.6628 82.0612 21.2734 80.4297 21.2734C78.9714 21.2734 77.7728 20.8633 76.834 20.043C75.9043 19.2135 75.4395 18.1654 75.4395 16.8984C75.4395 15.3581 76.0228 14.1641 77.1895 13.3164C78.3652 12.4596 80.015 12.0312 82.1387 12.0312H84.5996V10.8691C84.5996 9.98503 84.3353 9.2832 83.8066 8.76367C83.278 8.23503 82.4987 7.9707 81.4688 7.9707C80.5664 7.9707 79.8099 8.19857 79.1992 8.6543C78.5885 9.11003 78.2832 9.66146 78.2832 10.3086H75.7402C75.7402 9.57031 76 8.85938 76.5195 8.17578C77.0482 7.48307 77.7591 6.9362 78.6523 6.53516C79.5547 6.13411 80.5436 5.93359 81.6191 5.93359C83.3236 5.93359 84.6589 6.36198 85.625 7.21875C86.5911 8.06641 87.0924 9.23763 87.1289 10.7324V17.541C87.1289 18.8991 87.3021 19.9792 87.6484 20.7812V21H84.9961ZM80.7988 19.0723C81.5918 19.0723 82.3438 18.8672 83.0547 18.457C83.7656 18.0469 84.2806 17.5137 84.5996 16.8574V13.8223H82.6172C79.5182 13.8223 77.9688 14.7292 77.9688 16.543C77.9688 17.3359 78.2331 17.9557 78.7617 18.4023C79.2904 18.849 79.9694 19.0723 80.7988 19.0723ZM104.99 13.7676C104.99 16.0189 104.475 17.8327 103.445 19.209C102.415 20.5853 101.02 21.2734 99.2613 21.2734C97.4658 21.2734 96.053 20.7038 95.023 19.5645V26.6875H92.4938V6.20703H94.8043L94.9273 7.84766C95.9573 6.57161 97.3883 5.93359 99.2203 5.93359C100.998 5.93359 102.401 6.60352 103.431 7.94336C104.47 9.2832 104.99 11.1471 104.99 13.5352V13.7676ZM102.461 13.4805C102.461 11.8125 102.105 10.4954 101.394 9.5293C100.683 8.56315 99.7079 8.08008 98.4684 8.08008C96.9371 8.08008 95.7887 8.75911 95.023 10.1172V17.1855C95.7796 18.5345 96.9371 19.209 98.4957 19.209C99.7079 19.209 100.67 18.7305 101.38 17.7734C102.101 16.8073 102.461 15.3763 102.461 13.4805ZM115.755 21.2734C113.75 21.2734 112.118 20.6172 110.861 19.3047C109.603 17.9831 108.974 16.2194 108.974 14.0137V13.5488C108.974 12.0814 109.252 10.7734 109.808 9.625C110.373 8.46745 111.157 7.5651 112.159 6.91797C113.171 6.26172 114.265 5.93359 115.441 5.93359C117.364 5.93359 118.859 6.56706 119.925 7.83398C120.991 9.10091 121.525 10.9147 121.525 13.2754V14.3281H111.503C111.54 15.7865 111.963 16.9668 112.775 17.8691C113.595 18.7624 114.634 19.209 115.892 19.209C116.785 19.209 117.542 19.0267 118.161 18.6621C118.781 18.2975 119.323 17.8145 119.788 17.2129L121.333 18.416C120.094 20.321 118.234 21.2734 115.755 21.2734ZM115.441 8.01172C114.42 8.01172 113.563 8.38542 112.87 9.13281C112.178 9.87109 111.749 10.9102 111.585 12.25H118.995V12.0586C118.922 10.7734 118.576 9.77995 117.956 9.07812C117.336 8.36719 116.498 8.01172 115.441 8.01172ZM129.296 2.625V6.20703H132.057V8.16211H129.296V17.3359C129.296 17.9284 129.419 18.375 129.665 18.6758C129.911 18.9674 130.33 19.1133 130.923 19.1133C131.214 19.1133 131.615 19.0586 132.126 18.9492V21C131.46 21.1823 130.813 21.2734 130.184 21.2734C129.054 21.2734 128.202 20.9316 127.628 20.248C127.054 19.5645 126.766 18.5938 126.766 17.3359V8.16211H124.073V6.20703H126.766V2.625H129.296ZM139.172 21H136.643V6.20703H139.172V21ZM136.438 2.2832C136.438 1.87305 136.561 1.52669 136.807 1.24414C137.062 0.961589 137.436 0.820312 137.928 0.820312C138.42 0.820312 138.794 0.961589 139.049 1.24414C139.304 1.52669 139.432 1.87305 139.432 2.2832C139.432 2.69336 139.304 3.03516 139.049 3.30859C138.794 3.58203 138.42 3.71875 137.928 3.71875C137.436 3.71875 137.062 3.58203 136.807 3.30859C136.561 3.03516 136.438 2.69336 136.438 2.2832ZM148.064 2.625V6.20703H150.826V8.16211H148.064V17.3359C148.064 17.9284 148.188 18.375 148.434 18.6758C148.68 18.9674 149.099 19.1133 149.691 19.1133C149.983 19.1133 150.384 19.0586 150.895 18.9492V21C150.229 21.1823 149.582 21.2734 148.953 21.2734C147.823 21.2734 146.971 20.9316 146.396 20.248C145.822 19.5645 145.535 18.5938 145.535 17.3359V8.16211H142.842V6.20703H145.535V2.625H148.064ZM157.941 21H155.412V6.20703H157.941V21ZM155.207 2.2832C155.207 1.87305 155.33 1.52669 155.576 1.24414C155.831 0.961589 156.205 0.820312 156.697 0.820312C157.189 0.820312 157.563 0.961589 157.818 1.24414C158.073 1.52669 158.201 1.87305 158.201 2.2832C158.201 2.69336 158.073 3.03516 157.818 3.30859C157.563 3.58203 157.189 3.71875 156.697 3.71875C156.205 3.71875 155.831 3.58203 155.576 3.30859C155.33 3.03516 155.207 2.69336 155.207 2.2832ZM162.732 13.4668C162.732 12.0176 163.014 10.7142 163.579 9.55664C164.154 8.39909 164.946 7.50586 165.958 6.87695C166.979 6.24805 168.141 5.93359 169.445 5.93359C171.459 5.93359 173.086 6.63086 174.325 8.02539C175.574 9.41992 176.198 11.2747 176.198 13.5898V13.7676C176.198 15.2077 175.92 16.502 175.364 17.6504C174.818 18.7897 174.029 19.6784 172.999 20.3164C171.978 20.9544 170.803 21.2734 169.472 21.2734C167.467 21.2734 165.84 20.5762 164.591 19.1816C163.351 17.7871 162.732 15.9414 162.732 13.6445V13.4668ZM165.275 13.7676C165.275 15.4082 165.653 16.7253 166.409 17.7188C167.175 18.7122 168.196 19.209 169.472 19.209C170.757 19.209 171.778 18.7077 172.534 17.7051C173.291 16.6934 173.669 15.2806 173.669 13.4668C173.669 11.8444 173.282 10.5319 172.507 9.5293C171.741 8.51758 170.721 8.01172 169.445 8.01172C168.196 8.01172 167.189 8.50846 166.423 9.50195C165.657 10.4954 165.275 11.9173 165.275 13.7676ZM183.163 6.20703L183.245 8.06641C184.375 6.64453 185.852 5.93359 187.675 5.93359C190.801 5.93359 192.378 7.69727 192.405 11.2246V21H189.876V11.2109C189.867 10.1445 189.621 9.35612 189.137 8.8457C188.664 8.33529 187.921 8.08008 186.909 8.08008C186.089 8.08008 185.369 8.29883 184.749 8.73633C184.129 9.17383 183.646 9.74805 183.3 10.459V21H180.77V6.20703H183.163ZM217.354 15.8047H209.014L207.141 21H204.434L212.035 1.09375H214.332L221.947 21H219.254L217.354 15.8047ZM209.807 13.6445H216.574L213.184 4.33398L209.807 13.6445ZM238.127 13.7676C238.127 16.0189 237.612 17.8327 236.582 19.209C235.552 20.5853 234.157 21.2734 232.398 21.2734C230.602 21.2734 229.19 20.7038 228.16 19.5645V26.6875H225.63V6.20703H227.941L228.064 7.84766C229.094 6.57161 230.525 5.93359 232.357 5.93359C234.134 5.93359 235.538 6.60352 236.568 7.94336C237.607 9.2832 238.127 11.1471 238.127 13.5352V13.7676ZM235.597 13.4805C235.597 11.8125 235.242 10.4954 234.531 9.5293C233.82 8.56315 232.845 8.08008 231.605 8.08008C230.074 8.08008 228.925 8.75911 228.16 10.1172V17.1855C228.916 18.5345 230.074 19.209 231.632 19.209C232.845 19.209 233.806 18.7305 234.517 17.7734C235.237 16.8073 235.597 15.3763 235.597 13.4805ZM255.249 13.7676C255.249 16.0189 254.734 17.8327 253.704 19.209C252.674 20.5853 251.28 21.2734 249.521 21.2734C247.725 21.2734 246.312 20.7038 245.282 19.5645V26.6875H242.753V6.20703H245.064L245.187 7.84766C246.217 6.57161 247.648 5.93359 249.48 5.93359C251.257 5.93359 252.661 6.60352 253.691 7.94336C254.73 9.2832 255.249 11.1471 255.249 13.5352V13.7676ZM252.72 13.4805C252.72 11.8125 252.364 10.4954 251.654 9.5293C250.943 8.56315 249.967 8.08008 248.728 8.08008C247.196 8.08008 246.048 8.75911 245.282 10.1172V17.1855C246.039 18.5345 247.196 19.209 248.755 19.209C249.967 19.209 250.929 18.7305 251.64 17.7734C252.36 16.8073 252.72 15.3763 252.72 13.4805Z" fill="white"/>
</svg>
